<svg xmlns="http://www.w3.org/2000/svg" version="1.1" xmlns:xlink="http://www.w3.org/1999/xlink" xmlns:svgjs="http://svgjs.dev/svgjs" width="128" height="128" viewBox="0 0 128 128"><g transform="matrix(0.8046875,0,0,0.8046875,12.760752631578946,25.218405595605674)"><svg viewBox="0 0 95 72" data-background-color="#f9f9f9" preserveAspectRatio="xMidYMid meet" height="97" width="128" xmlns="http://www.w3.org/2000/svg" xmlns:xlink="http://www.w3.org/1999/xlink"><g id="tight-bounds" transform="matrix(1,0,0,1,-0.24049999999999727,-0.22668661486356712)"><svg viewBox="0 0 95.481 72.45337322972712" height="72.45337322972712" width="95.481"><g><svg viewBox="0 0 95.481 72.45337322972712" height="72.45337322972712" width="95.481"><g><svg viewBox="0 0 95.481 72.45337322972712" height="72.45337322972712" width="95.481"><g id="textblocktransform"><svg viewBox="0 0 95.481 72.45337322972712" height="72.45337322972712" width="95.481" id="textblock"><g><svg viewBox="0 0 95.481 72.45337322972712" height="72.45337322972712" width="95.481"><g><svg viewBox="0 0 95.481 72.45337322972712" height="72.45337322972712" width="95.481"><g><svg xmlns="http://www.w3.org/2000/svg" xmlns:xlink="http://www.w3.org/1999/xlink" version="1.1" x="0" y="0" viewBox="2.5002357020851167 12.750000000000002 84.9998312773269 64.5" enable-background="new 0 0 90 90" xml:space="preserve" height="72.45337322972712" width="95.481" class="icon-icon-0" data-fill-palette-color="accent" id="icon-0"><path fill="#2563eb" d="M55.976 20.184l18.752-4.201 0.941 4.201h3.074l-1.35-6.023c-0.188-0.84-0.933-1.411-1.759-1.411-0.131 0-0.264 0.014-0.396 0.044l-32.985 7.39H55.976z" data-fill-palette-color="accent"></path><path fill="#2563eb" d="M87.456 59.07l-4.104-18.314v13.72l0.915 4.084-0.915 0.205v3.074l2.736-0.613C87.062 61.008 87.674 60.042 87.456 59.07z" data-fill-palette-color="accent"></path><path fill="#2563eb" d="M6.647 35.521L5.732 31.44l0.915-0.205v-3.074l-2.736 0.613c-0.973 0.218-1.584 1.183-1.367 2.156l4.103 18.313V35.521z" data-fill-palette-color="accent"></path><path fill="#2563eb" d="M34.027 69.816l-18.755 4.202-0.941-4.202h-3.075l1.35 6.023c0.188 0.841 0.933 1.411 1.759 1.411 0.131 0 0.264-0.015 0.396-0.044l32.985-7.391H34.027z" data-fill-palette-color="accent"></path><path fill="#2563eb" d="M80.353 23.184v43.633H9.647V23.184H80.353M81.548 20.184H8.452c-0.997 0-1.805 0.808-1.805 1.805v46.023c0 0.997 0.808 1.805 1.805 1.805h73.096c0.997 0 1.805-0.808 1.805-1.805V21.988C83.353 20.992 82.545 20.184 81.548 20.184L81.548 20.184z" data-fill-palette-color="accent"></path><path fill="#2563eb" d="M44.612 41.849c-2.945 0-5.341 2.396-5.341 5.341 0 2.946 2.396 5.343 5.341 5.343 2.946 0 5.342-2.396 5.342-5.343C49.954 44.245 47.558 41.849 44.612 41.849z" data-fill-palette-color="accent"></path><path fill="#2563eb" d="M61.2 34.976h-9.98l-0.703-2.784c0-0.621-0.503-1.097-1.124-1.097h-8.998c-0.621 0-1.124 0.476-1.124 1.097l-0.703 2.784H28.023c-1.553 0-3.199 1.104-3.199 2.656V56.75c0 1.552 1.646 3.057 3.199 3.057H61.2c1.553 0 2.424-1.503 2.424-3.055v-19.12C63.624 36.079 62.753 34.976 61.2 34.976zM44.612 55.907c-4.813 0-8.716-3.903-8.716-8.716 0-4.813 3.902-8.716 8.716-8.716 4.814 0 8.715 3.902 8.715 8.715C53.327 52.004 49.426 55.907 44.612 55.907z" data-fill-palette-color="accent"></path></svg></g></svg></g></svg></g></svg></g></svg></g></svg></g><defs></defs></svg><rect width="95.481" height="72.45337322972712" fill="none" stroke="none" visibility="hidden"></rect></g></svg></g></svg>