<svg xmlns="http://www.w3.org/2000/svg" version="1.1" xmlns:xlink="http://www.w3.org/1999/xlink" xmlns:svgjs="http://svgjs.dev/svgjs" width="2000" height="378" viewBox="0 0 2000 378"><g transform="matrix(1,0,0,1,-1.2121212121212466,-0.651185960054903)"><svg viewBox="0 0 396 75" data-background-color="#f9f9f9" preserveAspectRatio="xMidYMid meet" height="378" width="2000" xmlns="http://www.w3.org/2000/svg" xmlns:xlink="http://www.w3.org/1999/xlink"><g id="tight-bounds" transform="matrix(1,0,0,1,0.2400000000000091,0.12920356350295492)"><svg viewBox="0 0 395.52 74.74159287299406" height="74.74159287299406" width="395.52"><g><svg viewBox="0 0 550.3351288266172 103.99707762557078" height="74.74159287299406" width="395.52"><g transform="matrix(1,0,0,1,154.81512882661713,14.372968036529684)"><svg viewBox="0 0 395.52 75.25114155251141" height="75.25114155251141" width="395.52"><g id="textblocktransform"><svg viewBox="0 0 395.52 75.25114155251141" height="75.25114155251141" width="395.52" id="textblock"><g><svg viewBox="0 0 395.52 75.25114155251141" height="75.25114155251141" width="395.52"><g transform="matrix(1,0,0,1,0,0)"><svg width="395.52" viewBox="3.1 -37.5 207.07 37.5" height="75.25114155251141" data-palette-color="#ffffff"><g class="wordmark-text-0" data-fill-palette-color="primary" id="text-0"><path d="M7.75 0L3.1 0 3.1-35 18.1-35Q19.55-35 20.63-33.95 21.7-32.9 21.7-31.4L21.7-31.4 21.7-20.65Q21.7-19.15 20.63-18.1 19.55-17.05 18.1-17.05L18.1-17.05 7.75-17.05 7.75 0ZM7.75-30.35L7.75-21.7 15.25-21.7Q16-21.7 16.53-22.23 17.05-22.75 17.05-23.5L17.05-23.5 17.05-28.6Q17.05-29.3 16.53-29.83 16-30.35 15.25-30.35L15.25-30.35 7.75-30.35ZM31.5-32.8L26.8-31.7 26.8-36.4 31.5-37.5 31.5-32.8ZM31.6 0L26.9 0 26.9-23.9 31.6-25 31.6 0ZM40.3 0L35.59 0 40.3-12.5 35.59-25 40.3-25 42.64-18.75 44.99-25 49.64-25 44.99-12.5 49.64 0 44.99 0 42.64-6.25 40.3 0ZM67.74 0L57.29 0Q55.79 0 54.72-1.07 53.64-2.15 53.64-3.65L53.64-3.65 53.64-21.4Q53.64-22.9 54.72-23.95 55.79-25 57.29-25L57.29-25 64.09-25Q65.64-25 66.69-23.95 67.74-22.9 67.74-21.4L67.74-21.4 67.74-13.8Q67.74-12.3 66.69-11.23 65.64-10.15 64.09-10.15L64.09-10.15 58.34-10.15 58.34-6.5Q58.34-5.75 58.87-5.23 59.39-4.7 60.19-4.7L60.19-4.7 66.69-4.7 67.74 0ZM58.34-18.5L58.34-14.85 61.24-14.85Q61.99-14.85 62.52-15.38 63.04-15.9 63.04-16.65L63.04-16.65 63.04-18.5Q63.04-19.25 62.52-19.78 61.99-20.3 61.24-20.3L61.24-20.3 60.19-20.3Q59.39-20.3 58.87-19.78 58.34-19.25 58.34-18.5L58.34-18.5ZM76.44 0L71.74 0 71.74-36.35 76.44-37.4 76.44 0ZM86.19 0L81.54 0 81.54-35 86.19-35 86.19-21.7 95.49-21.7 95.49-35 100.09-35 100.09 0 95.49 0 95.49-17.05 86.19-17.05 86.19 0ZM119.29 0L108.84 0Q107.34 0 106.26-1.05 105.19-2.1 105.19-3.65L105.19-3.65 105.19-11.2Q105.19-12.7 106.26-13.78 107.34-14.85 108.84-14.85L108.84-14.85 112.74-14.85Q113.54-14.85 114.06-15.38 114.59-15.9 114.59-16.65L114.59-16.65 114.59-18.5Q114.59-19.25 114.06-19.78 113.54-20.3 112.74-20.3L112.74-20.3 107.34-20.3 108.39-25 115.64-25Q117.14-25 118.21-23.93 119.29-22.85 119.29-21.35L119.29-21.35 119.29 0ZM111.69-4.7L111.69-4.7 114.59-4.7 114.59-10.15 111.69-10.15Q110.94-10.15 110.41-9.63 109.89-9.1 109.89-8.35L109.89-8.35 109.89-6.5Q109.89-5.75 110.41-5.23 110.94-4.7 111.69-4.7ZM127.98 0L123.28 0 123.28-25 133.73-25Q135.23-25 136.31-23.93 137.38-22.85 137.38-21.35L137.38-21.35 137.38-15.9 132.68-16.95 132.68-18.45Q132.68-19.2 132.16-19.75 131.63-20.3 130.88-20.3L130.88-20.3 127.98-20.3 127.98 0ZM151.83 0L141.38 0 141.38-36.45 146.08-37.5 146.08-25 151.83-25Q153.33-25 154.41-23.95 155.48-22.9 155.48-21.35L155.48-21.35 155.48-3.65Q155.48-2.15 154.41-1.07 153.33 0 151.83 0L151.83 0ZM146.08-20.3L146.08-4.7 148.93-4.7Q149.68-4.7 150.23-5.23 150.78-5.75 150.78-6.5L150.78-6.5 150.78-18.5Q150.78-19.25 150.23-19.78 149.68-20.3 148.93-20.3L148.93-20.3 146.08-20.3ZM170.33 0L163.53 0Q161.98 0 160.93-1.07 159.88-2.15 159.88-3.65L159.88-3.65 159.88-21.35Q159.88-22.85 160.93-23.93 161.98-25 163.53-25L163.53-25 170.33-25Q171.83-25 172.88-23.93 173.93-22.85 173.93-21.35L173.93-21.35 173.93-3.65Q173.93-2.15 172.88-1.07 171.83 0 170.33 0L170.33 0ZM166.38-4.7L166.38-4.7 167.43-4.7Q168.18-4.7 168.73-5.23 169.28-5.75 169.28-6.5L169.28-6.5 169.28-18.5Q169.28-19.25 168.73-19.78 168.18-20.3 167.43-20.3L167.43-20.3 166.38-20.3Q165.63-20.3 165.1-19.78 164.58-19.25 164.58-18.5L164.58-18.5 164.58-6.5Q164.58-5.75 165.1-5.23 165.63-4.7 166.38-4.7ZM192.08 0L181.63 0Q180.08 0 179.03-1.05 177.98-2.1 177.98-3.65L177.98-3.65 177.98-25 182.68-25 182.68-6.5Q182.68-5.8 183.23-5.25 183.78-4.7 184.48-4.7L184.48-4.7 187.38-4.7 187.38-25 192.08-25 192.08 0ZM200.77 0L196.07 0 196.07-25 206.52-25Q208.02-25 209.1-23.93 210.17-22.85 210.17-21.35L210.17-21.35 210.17-15.9 205.47-16.95 205.47-18.45Q205.47-19.2 204.95-19.75 204.42-20.3 203.67-20.3L203.67-20.3 200.77-20.3 200.77 0Z" fill="#ffffff" data-fill-palette-color="primary"></path></g></svg></g></svg></g></svg></g></svg></g><g><svg viewBox="0 0 137.05014033346643 103.99707762557078" height="103.99707762557078" width="137.05014033346643"><g><svg xmlns="http://www.w3.org/2000/svg" xmlns:xlink="http://www.w3.org/1999/xlink" version="1.1" x="0" y="0" viewBox="2.5002357020851167 12.750000000000002 84.9998312773269 64.5" enable-background="new 0 0 90 90" xml:space="preserve" height="103.99707762557078" width="137.05014033346643" class="icon-icon-0" data-fill-palette-color="accent" id="icon-0"><path fill="#ffffff" d="M55.976 20.184l18.752-4.201 0.941 4.201h3.074l-1.35-6.023c-0.188-0.84-0.933-1.411-1.759-1.411-0.131 0-0.264 0.014-0.396 0.044l-32.985 7.39H55.976z" data-fill-palette-color="accent"></path><path fill="#ffffff" d="M87.456 59.07l-4.104-18.314v13.72l0.915 4.084-0.915 0.205v3.074l2.736-0.613C87.062 61.008 87.674 60.042 87.456 59.07z" data-fill-palette-color="accent"></path><path fill="#ffffff" d="M6.647 35.521L5.732 31.44l0.915-0.205v-3.074l-2.736 0.613c-0.973 0.218-1.584 1.183-1.367 2.156l4.103 18.313V35.521z" data-fill-palette-color="accent"></path><path fill="#ffffff" d="M34.027 69.816l-18.755 4.202-0.941-4.202h-3.075l1.35 6.023c0.188 0.841 0.933 1.411 1.759 1.411 0.131 0 0.264-0.015 0.396-0.044l32.985-7.391H34.027z" data-fill-palette-color="accent"></path><path fill="#ffffff" d="M80.353 23.184v43.633H9.647V23.184H80.353M81.548 20.184H8.452c-0.997 0-1.805 0.808-1.805 1.805v46.023c0 0.997 0.808 1.805 1.805 1.805h73.096c0.997 0 1.805-0.808 1.805-1.805V21.988C83.353 20.992 82.545 20.184 81.548 20.184L81.548 20.184z" data-fill-palette-color="accent"></path><path fill="#ffffff" d="M44.612 41.849c-2.945 0-5.341 2.396-5.341 5.341 0 2.946 2.396 5.343 5.341 5.343 2.946 0 5.342-2.396 5.342-5.343C49.954 44.245 47.558 41.849 44.612 41.849z" data-fill-palette-color="accent"></path><path fill="#ffffff" d="M61.2 34.976h-9.98l-0.703-2.784c0-0.621-0.503-1.097-1.124-1.097h-8.998c-0.621 0-1.124 0.476-1.124 1.097l-0.703 2.784H28.023c-1.553 0-3.199 1.104-3.199 2.656V56.75c0 1.552 1.646 3.057 3.199 3.057H61.2c1.553 0 2.424-1.503 2.424-3.055v-19.12C63.624 36.079 62.753 34.976 61.2 34.976zM44.612 55.907c-4.813 0-8.716-3.903-8.716-8.716 0-4.813 3.902-8.716 8.716-8.716 4.814 0 8.715 3.902 8.715 8.715C53.327 52.004 49.426 55.907 44.612 55.907z" data-fill-palette-color="accent"></path></svg></g></svg></g></svg></g><defs></defs></svg><rect width="395.52" height="74.74159287299406" fill="none" stroke="none" visibility="hidden"></rect></g></svg></g></svg>